<svg width="342" height="329" viewBox="0 0 342 329" fill="none" xmlns="http://www.w3.org/2000/svg">
<g filter="url(#filter0_d)">
<path d="M122.016 274.503C113.415 275.04 79.5491 283.621 66.6479 265.385C52.4114 245.262 65.2668 202.633 103.201 187.079C143.084 170.726 183.025 163.934 204.798 170.452C226.3 176.888 248.8 184.407 259.628 198.878C269.623 212.237 296.414 243.931 287.043 265.385C278.934 283.95 230.785 282.551 204.798 286.839C178.811 291.127 167.17 308.829 144.593 305.611C129.613 303.476 114.796 286.839 122.016 274.503ZM122.016 274.503C130.48 260.04 130.079 253.049 154.268 243.931C177.614 235.132 173.62 236.423 189.747 230.523" stroke="#007DB2" stroke-width="18" stroke-linecap="round" shape-rendering="crispEdges"/>
</g>
<g filter="url(#filter1_d)">
<path d="M121 110L146 145L171 110L196 145L221 110" stroke="#007DB2" stroke-width="15" stroke-linecap="round" stroke-linejoin="round"/>
</g>
<g filter="url(#filter2_d)">
<path d="M21 310L12.0557 305.528L4.81966 320H21V310ZM171 10L179.944 5.52786C178.25 2.14002 174.788 0 171 0C167.212 0 163.75 2.14002 162.056 5.52786L171 10ZM321 310V320H337.18L329.944 305.528L321 310ZM29.9443 314.472L179.944 14.4721L162.056 5.52786L12.0557 305.528L29.9443 314.472ZM162.056 14.4721L312.056 314.472L329.944 305.528L179.944 5.52786L162.056 14.4721ZM321 300H21V320H321V300Z" fill="#007DB3"/>
</g>
<defs>
<filter id="filter0_d" x="42.0019" y="153" width="265.998" height="175.999" filterUnits="userSpaceOnUse" color-interpolation-filters="sRGB">
<feFlood flood-opacity="0" result="BackgroundImageFix"/>
<feColorMatrix in="SourceAlpha" type="matrix" values="0 0 0 0 0 0 0 0 0 0 0 0 0 0 0 0 0 0 127 0" result="hardAlpha"/>
<feOffset dy="4"/>
<feGaussianBlur stdDeviation="5"/>
<feComposite in2="hardAlpha" operator="out"/>
<feColorMatrix type="matrix" values="0 0 0 0 0 0 0 0 0 0 0 0 0 0 0 0 0 0 0.25 0"/>
<feBlend mode="normal" in2="BackgroundImageFix" result="effect1_dropShadow"/>
<feBlend mode="normal" in="SourceGraphic" in2="effect1_dropShadow" result="shape"/>
</filter>
<filter id="filter1_d" x="109.499" y="102.499" width="123.001" height="58.0006" filterUnits="userSpaceOnUse" color-interpolation-filters="sRGB">
<feFlood flood-opacity="0" result="BackgroundImageFix"/>
<feColorMatrix in="SourceAlpha" type="matrix" values="0 0 0 0 0 0 0 0 0 0 0 0 0 0 0 0 0 0 127 0" result="hardAlpha"/>
<feOffset dy="4"/>
<feGaussianBlur stdDeviation="2"/>
<feComposite in2="hardAlpha" operator="out"/>
<feColorMatrix type="matrix" values="0 0 0 0 0 0 0 0 0 0 0 0 0 0 0 0 0 0 0.25 0"/>
<feBlend mode="normal" in2="BackgroundImageFix" result="effect1_dropShadow"/>
<feBlend mode="normal" in="SourceGraphic" in2="effect1_dropShadow" result="shape"/>
</filter>
<filter id="filter2_d" x="0.819656" y="0" width="340.361" height="328" filterUnits="userSpaceOnUse" color-interpolation-filters="sRGB">
<feFlood flood-opacity="0" result="BackgroundImageFix"/>
<feColorMatrix in="SourceAlpha" type="matrix" values="0 0 0 0 0 0 0 0 0 0 0 0 0 0 0 0 0 0 127 0" result="hardAlpha"/>
<feOffset dy="4"/>
<feGaussianBlur stdDeviation="2"/>
<feComposite in2="hardAlpha" operator="out"/>
<feColorMatrix type="matrix" values="0 0 0 0 0 0 0 0 0 0 0 0 0 0 0 0 0 0 0.25 0"/>
<feBlend mode="normal" in2="BackgroundImageFix" result="effect1_dropShadow"/>
<feBlend mode="normal" in="SourceGraphic" in2="effect1_dropShadow" result="shape"/>
</filter>
</defs>
</svg>
